<svg version="1.0" xmlns="http://www.w3.org/2000/svg" width="213.333" height="213.333" viewBox="0 0 160 160">
  <path d="M72.9 7.4c-.2.2-2.3.6-4.7 1-12.1 1.6-26.1 12.9-30 24.2-1.7 4.8-2 7.8-1.7 16.4.2 5.8.5 11.4.8 12.5.2 1.1-.2 2.4-.9 3-2.3 1.7-2 7.3 1.1 18.2 1.2 4 2.1 5.3 4.3 6.1 2.2.8.9 1.1-6.5 1.1-8.3.1-9.3.3-10.4 2.2-1 2-.8 12.6.6 32.1.4 5.1.2 6-2.1 8.5-4.2 4.5-8.5 14.1-10.1 22.5-.1 1-.4 2.3-.5 3-.2 1 13.1 1.4 68.3 1.6 67.5.2 68.7.2 69.2-1.7.3-1.1.2-2.2-.1-2.6-.3-.3-.7-1.1-.8-1.8-.9-5.3-7.9-19.6-10.3-21.2-1-.6-.9-4.4.5-24 1-13.5.6-16.8-2.3-17.9-.9-.4-5.2-.7-9.5-.7-4.6 0-7.6-.4-7.3-1 .4-.5 1.3-.9 2.1-.9 1.9 0 3.8-4.7 5.4-13.7 1.2-6.6 1.2-7.5-.4-9.2-1.5-1.6-1.6-2.8-.9-7.8 4.1-26.7-6.7-43.5-31.2-48.9-3.3-.7-22-1.5-22.6-1z"/>
</svg>
